<svg xmlns="http://www.w3.org/2000/svg" version="1.1" xmlns:xlink="http://www.w3.org/1999/xlink" xmlns:svgjs="http://svgjs.dev/svgjs" width="2000" height="3983" viewBox="0 0 2000 3983"><g transform="matrix(1,0,0,1,-2.690949225587474,1.6125506072874032)"><svg viewBox="0 0 124 247" data-background-color="#00784a" preserveAspectRatio="xMidYMid meet" height="3983" width="2000" xmlns="http://www.w3.org/2000/svg" xmlns:xlink="http://www.w3.org/1999/xlink"><g id="tight-bounds" transform="matrix(1,0,0,1,0.16683885198642656,-0.09999999999999432)"><svg viewBox="0 0 123.66632229602716 247.2" height="247.2" width="123.66632229602716"><g><svg viewBox="0 0 316.2426513596444 632.1461006091188" height="247.2" width="123.66632229602716"><g><rect width="316.2426513596444" height="22.292751110399998" x="0" y="252.82361758831868" fill="#000000" opacity="1" stroke-width="0" stroke="transparent" fill-opacity="1" class="rect-yte-0" data-fill-palette-color="primary" rx="1%" id="yte-0" data-palette-color="#fffafe"></rect></g><g><rect width="316.2426513596444" height="22.292751110399998" x="0" y="304.2953622987187" fill="#000000" opacity="1" stroke-width="0" stroke="transparent" fill-opacity="1" class="rect-yte-1" data-fill-palette-color="primary" rx="1%" id="yte-1" data-palette-color="#fffafe"></rect></g><g transform="matrix(1,0,0,1,0.786673262088641,384.94610060911873)"><svg viewBox="0 0 314.66930483546713 247.2" height="247.2" width="314.66930483546713"><g id="textblocktransform"><svg viewBox="0 0 314.66930483546713 247.2" height="247.2" width="314.66930483546713" id="textblock"><g><svg viewBox="0 0 314.66930483546713 247.2" height="247.2" width="314.66930483546713"><g transform="matrix(1,0,0,1,0,0)"><svg width="314.66930483546713" viewBox="1.710588348457 -35.18 45.189411651543 35.5" height="247.2" data-palette-color="#fffafe"><path d="M10.62 0.32L10.62 0.32Q6.03 0.32 3.98-1.14 1.93-2.59 1.81-5.93L1.81-5.93Q1.68-7.79 1.72-9.3 1.76-10.82 1.88-12.7L1.88-12.7 5.18-12.7Q5.03-10.82 5.04-8.96 5.05-7.1 5.18-5.37L5.18-5.37Q5.3-3.96 6.52-3.28 7.74-2.61 10.55-2.61L10.55-2.61Q13.31-2.61 14.47-3.28 15.63-3.96 15.77-5.37L15.77-5.37Q15.89-7.1 15.88-8.39 15.87-9.67 15.77-11.57L15.77-11.57Q15.67-13.09 14.98-14.11 14.28-15.14 11.89-15.45L11.89-15.45 8.4-16.09Q5.64-16.55 4.26-17.44 2.88-18.33 2.38-19.74 1.88-21.14 1.78-23.17L1.78-23.17Q1.71-24.51 1.73-26.04 1.76-27.56 1.83-29L1.83-29Q1.88-32.32 3.87-33.75 5.86-35.18 10.55-35.18L10.55-35.18Q14.87-35.18 16.83-33.74 18.8-32.3 18.92-28.98L18.92-28.98Q18.99-27.83 18.97-26.14 18.95-24.44 18.87-22.63L18.87-22.63 15.55-22.63Q15.72-24.37 15.72-26.1 15.72-27.83 15.6-29.54L15.6-29.54Q15.5-30.93 14.32-31.59 13.13-32.25 10.47-32.25L10.47-32.25Q7.71-32.25 6.53-31.59 5.35-30.93 5.22-29.54L5.22-29.54Q5.1-27.98 5.11-26.37 5.13-24.76 5.22-23.17L5.22-23.17Q5.32-21.39 5.99-20.45 6.67-19.51 9.18-19.21L9.18-19.21 12.6-18.68Q15.36-18.26 16.75-17.33 18.14-16.41 18.64-14.98 19.14-13.55 19.21-11.57L19.21-11.57Q19.34-9.77 19.31-8.64 19.29-7.52 19.17-5.93L19.17-5.93Q18.99-2.59 17-1.14 15.01 0.32 10.62 0.32ZM32.61-11.16L31.47 0 25.19 0 22.31-34.86 25.73-34.86 26.66-21.29 27.85-3.13 29.03-3.13 30.25-21.29 31.59-34.62 37.62-34.62 39.04-21.29 40.11-3.13 41.28-3.13 42.53-21.29 43.53-34.86 46.9-34.86 43.97 0 37.72 0 36.52-11.16 35.28-31.62 33.93-31.62 32.61-11.16Z" opacity="1" transform="matrix(1,0,0,1,0,0)" fill="#000000" class="wordmark-text-0" data-fill-palette-color="primary" id="text-0"></path></svg></g></svg></g></svg></g></svg></g><g transform="matrix(1,0,0,1,60.88851048566286,0)"><svg viewBox="0 0 194.4656303883187 194.4656303883187" height="194.4656303883187" width="194.4656303883187"><g><svg xmlns="http://www.w3.org/2000/svg" xmlns:xlink="http://www.w3.org/1999/xlink" version="1.1" x="0" y="0" viewBox="18.751 19.25 63 63" enable-background="new 0 0 100 100" xml:space="preserve" height="194.4656303883187" width="194.4656303883187" class="icon-icon-0" data-fill-palette-color="accent" id="icon-0"></svg></g></svg></g><g></g></svg></g><defs></defs></svg><rect width="123.66632229602716" height="247.2" fill="none" stroke="none" visibility="hidden"></rect></g></svg></g></svg>