<?xml version="1.0" encoding="UTF-8"?>
<svg version="1.1" xmlns="http://www.w3.org/2000/svg" width="2000" height="3983">
<path d="M0 0 C49.83 0 99.66 0 151 0 C153.31282489 25.4410738 153.31282489 25.4410738 154.06734222 36.49811351 C154.12378015 37.32087677 154.18021807 38.14364002 154.23836624 38.9913355 C154.29694522 39.84600325 154.3555242 40.70067101 154.4158783 41.58123779 C154.54598965 43.45363664 154.676302 45.32602153 154.80679327 47.19839394 C155.16202948 52.30456266 155.51428074 57.41093332 155.8659488 62.51734886 C156.17190399 66.95432377 156.47962687 71.39117544 156.78734528 75.82802837 C157.73008686 89.42107595 158.66821172 103.01443985 159.60509181 116.60789251 C160.11184564 123.96051882 160.6192409 131.31310071 161.12677315 138.66567331 C163.74559582 176.60573902 166.3545013 214.54648339 168.95853641 252.48756672 C169.5011439 260.39339896 170.04384429 268.29922479 170.58685303 276.20502949 C176.44465872 361.4903663 182.2726689 446.77774244 219.70004615 1011.02843174 C220.64182243 1025.40823858 221.58405597 1039.7880154 222.52661945 1054.16777066 C225.99268016 1107.04609412 229.45401071 1159.92472368 232.9068356 1212.80391315 C233.79838446 1226.45761823 234.69106865 1240.1112486 235.584601 1253.76482401 C236.71699209 1271.06844945 237.84721441 1288.37221422 238.97348816 1305.67623898 C239.51154304 1313.94216372 240.0505574 1322.20802278 240.59247482 1330.47369528 C241.03969519 1337.29502037 241.48476357 1344.11648129 241.92686992 1350.93813983 C242.14876609 1354.36102208 242.37166803 1357.78383037 242.59743697 1361.20645954 C242.83970591 1364.88761925 243.07798254 1368.56901645 243.31524658 1372.25050163 C243.38563463 1373.30548213 243.45602268 1374.36046263 243.52854371 1375.44741224 C243.59139864 1376.43544344 243.65425358 1377.42347464 243.71901321 1378.44144619 C243.77370372 1379.2800458 243.82839423 1380.11864541 243.88474202 1380.98265713 C244.05037539 1385.31877918 244 1389.66071563 244 1394 C260.83 1394 277.66 1394 295 1394 C295.33 1386.41 295.66 1378.82 296 1371 C296.24656641 1366.51678044 296.50164831 1362.03739303 296.78710556 1357.55692387 C296.8601804 1356.38173235 296.93325525 1355.20654083 297.00854448 1353.99573745 C297.24944393 1350.13138331 297.49352036 1346.26723756 297.73773193 1342.40309143 C297.87002048 1340.29432069 298.00197432 1338.18552919 298.13388625 1336.07673485 C298.66436379 1327.59660535 299.19914431 1319.11675052 299.73507306 1310.63696402 C300.04996045 1305.65431775 300.36397146 1300.67161643 300.67792058 1295.68891096 C306.424147 1204.51573779 312.3319721 1113.35295148 318.31476772 1022.19502187 C318.67676955 1016.67912639 319.03846378 1011.16321079 319.40008265 1005.64729019 C326.5645102 896.37376718 333.85782533 787.10665194 377.15655842 290.34380057 C377.37535645 288.24658333 377.59398993 286.14934901 377.81256557 284.05210859 C384.06848261 224.02747357 390.43447469 164.01428402 397.14211389 104.03823734 C400.60450401 73.04113983 403.79027221 42.02736865 407 11 C494.78 11 582.56 11 673 11 C675.29723184 25.93200699 675.29723184 25.93200699 675.99623775 32.63645744 C676.07966857 33.41244624 676.16309938 34.18843503 676.2490584 34.98793864 C676.52379531 37.55008325 676.79425166 40.11266001 677.06468201 42.67526245 C677.26454963 44.54763384 677.46468456 46.41997672 677.66506153 48.29229367 C678.21210818 53.41111955 678.75538846 58.53033906 679.29803121 63.64963341 C679.8856422 69.18676775 680.47678467 74.72352522 681.06748962 80.2603302 C682.091989 89.86772864 683.1142663 99.47536144 684.13503838 109.08315659 C685.62280872 123.08639361 687.11401807 137.08926279 688.60602678 151.09204878 C691.04269616 173.96150497 693.4766778 196.83124614 695.90893555 219.70117188 C698.24388555 241.65606438 700.57995768 263.61083694 702.91772461 285.56542969 C702.98905066 286.23527655 703.0603767 286.90512341 703.13386414 287.59526866 C703.99429672 295.67586195 704.85477684 303.75645018 705.71527658 311.83703631 C707.06263265 324.48950339 708.40989018 337.14198096 709.75709534 349.79446411 C709.96479912 351.74513248 709.96479912 351.74513248 710.17669893 353.73520829 C711.79408775 368.92528392 713.41126694 384.11538182 715.02714629 399.30561811 C715.66542158 405.30571996 716.30401787 411.30578722 716.94338989 417.3057723 C718.06956475 427.8770808 719.19336806 438.44860941 720.30396082 449.02156782 C720.91188598 454.80823714 721.52188436 460.59468636 722.1330719 466.38101196 C722.25263398 467.51328942 722.37219606 468.64556688 722.49538124 469.81215578 C724.04384361 484.43930833 725.69400992 499.05029169 727.45072271 513.65381929 C737.15797261 594.60694303 741.37450625 675.91767466 746.04192074 757.28190118 C746.89865298 772.21007989 747.76742938 787.13752326 748.64402199 802.06454849 C748.7070378 803.13773802 748.77005362 804.21092756 748.83497901 805.31663798 C749.15529462 810.77101458 749.47577415 816.22538153 749.79630957 821.67974521 C752.04539218 859.9572112 754.27116742 898.23599897 756.4831543 936.515625 C758.62475363 973.57669111 760.77984335 1010.6369382 762.95092773 1047.69628906 C763.01820752 1048.84478746 763.0854873 1049.99328585 763.15480587 1051.17658723 C763.69624107 1060.41906015 764.23772242 1069.66153037 764.77928904 1078.90399559 C767.1154011 1118.77302879 769.44104317 1158.64267327 771.7644012 1198.5124515 C772.20049338 1205.99552825 772.6369412 1213.4785842 773.07350898 1220.96163321 C774.3805 1243.36709499 775.68423444 1265.7727394 776.97845557 1288.17894284 C777.51282303 1297.42927359 778.0485835 1306.67951727 778.58877182 1315.92951012 C779.03664292 1323.5989009 779.48118591 1331.26847517 779.92126515 1338.93831719 C780.1425891 1342.7940858 780.36539133 1346.64975205 780.59254464 1350.50518201 C780.83784039 1354.66940124 781.07541974 1358.83402676 781.31232738 1362.99873161 C781.38298295 1364.17762388 781.45363852 1365.35651615 781.52643517 1366.57113242 C782.03899614 1375.75804619 782 1384.75309622 782 1394 C798.83 1394 815.66 1394 833 1394 C833 1390.7 833 1387.4 833 1384 C833.07683964 1382.1028823 833.17377334 1380.20631285 833.3031829 1378.31205493 C833.37100281 1377.2950991 833.43882271 1376.27814327 833.50869777 1375.2303706 C833.58464568 1374.1430174 833.6605936 1373.0556642 833.73884296 1371.93536091 C833.85881463 1370.15900286 833.85881463 1370.15900286 833.98120997 1368.34675879 C834.20334966 1365.06801598 834.42852582 1361.78949833 834.65501217 1358.51105344 C834.90151621 1354.93196297 835.14407309 1351.35260455 835.38715941 1347.77328062 C835.87101456 1340.65811341 836.35856833 1333.543204 836.84727494 1326.42836855 C837.43531071 1317.86513769 838.01948719 1309.30164461 838.6036582 1300.73814939 C839.89426636 1281.82175143 841.1906407 1262.90575062 842.4883735 1243.9898403 C842.55613363 1243.00215634 842.62389376 1242.01447238 842.69370723 1240.9968586 C842.76167862 1240.00610653 842.82965002 1239.01535446 842.89968115 1237.9945796 C843.59005074 1227.93079523 844.27937986 1217.86693965 844.96862136 1207.80307796 C848.76938448 1152.30771296 852.58216627 1096.81317801 856.40134708 1041.31907766 C857.41718782 1026.55841305 858.43254786 1011.79771545 859.4476238 997.03699822 C867.22134318 883.99825477 875.01883441 770.96109303 912.17455244 254.26652479 C912.81962334 245.56127789 913.46403727 236.85598242 914.10835402 228.15067967 C916.90492607 190.36784855 919.71031038 152.58568299 922.53129221 114.80466612 C923.02860718 108.14410508 923.52563007 101.48352261 924.02187467 94.8228817 C925.11531308 80.14693686 926.21232655 65.4712702 927.31620443 50.7961067 C927.64389909 46.43804814 927.96987372 42.07986646 928.2942816 37.72156203 C928.66365594 32.76029704 929.03660777 27.79931505 929.4125837 22.8385461 C929.54751478 21.05014291 929.68114121 19.26164074 929.81336565 17.4730354 C929.99170848 15.06340889 930.17473659 12.65418453 930.3590374 10.24500751 C930.40967612 9.54565431 930.46031483 8.84630111 930.51248806 8.12575539 C930.73935625 5.21901818 931.07260956 2.78217133 932 0 C981.17 0 1030.34 0 1081 0 C1075.25267282 71.26685708 1075.25267282 71.26685708 1073.30117798 94.43896484 C1073.06781546 97.21814827 1072.83476441 99.9973578 1072.60169315 102.77656567 C1072.10684886 108.67536269 1071.61129021 114.5740993 1071.11518025 120.47279 C1070.37344391 129.29199474 1069.63295203 138.1113037 1068.89265211 146.93062912 C1067.63199805 161.94861248 1066.37039184 176.96651571 1065.10821533 191.98437119 C1063.83806968 207.09707621 1062.56836827 222.20981847 1061.29919434 237.32260513 C1061.21855973 238.28276359 1061.13792513 239.24292205 1061.05484706 240.23217622 C1060.72650503 244.14193193 1060.39816587 248.05168788 1060.06983045 251.96144414 C1056.94978571 289.11432259 1053.82861783 326.26710661 1050.70683223 363.41983881 C1047.98354526 395.82999782 1045.26065245 428.2401899 1042.53826728 460.65042466 C1042.08180553 466.08464114 1041.62534084 471.51885736 1041.16887653 476.95307362 C1041.07831271 478.03123787 1040.98774889 479.10940211 1040.89444071 480.220238 C1040.71131523 482.40035052 1040.5281897 484.58046303 1040.34506413 486.76057554 C1040.16173244 488.94314197 1039.97840085 491.12570842 1039.79506937 493.30827487 C1030.56285459 603.21796125 1021.32789966 713.12741739 973.17101665 1285.85031838 C972.46296363 1294.26742817 971.75492537 1302.6845392 971.04688761 1311.10165027 C970.49692464 1317.63957104 969.94695801 1324.1774915 969.39699053 1330.7154119 C969.26180048 1332.32252871 969.12661055 1333.92964553 968.99142075 1335.53676236 C967.37906789 1354.70417228 965.76660733 1373.87157312 964.15392218 1393.03895508 C963.21444772 1404.20499569 962.2750657 1415.37104407 961.33575454 1426.53709842 C960.70287567 1434.06035969 960.06988677 1441.58361169 959.43678366 1449.1068541 C959.14630111 1452.55906287 958.855917 1456.01127992 958.56555498 1459.46349883 C958.20353068 1463.76772166 957.84111188 1468.07191098 957.47840083 1472.37607598 C956.67548426 1481.91103034 955.87900139 1491.44642511 955.09998703 1500.98336411 C954.96066373 1502.68210798 954.82130176 1504.38084868 954.68189752 1506.07958591 C954.42927118 1509.15815573 954.17978599 1512.23695558 953.93234217 1515.31594574 C953.82192028 1516.66448743 953.71138022 1518.01301945 953.60069847 1519.36153984 C953.46163379 1521.08179668 953.46163379 1521.08179668 953.31975973 1522.83680618 C953.00939359 1525.90707476 952.50732143 1528.95607141 952 1532 C860.92 1532 769.84 1532 676 1532 C673.08414063 1504.85363281 670.16828125 1477.70726563 667.1640625 1449.73828125 C665.29557862 1432.34309835 663.42709212 1414.94791572 661.55859375 1397.55273438 C660.5740552 1388.38696298 659.58951729 1379.22119151 658.60498047 1370.05541992 C658.48166269 1368.90736498 658.35834491 1367.75931003 658.23129022 1366.57646555 C656.26606498 1348.28074529 654.30087571 1329.98502117 652.33570082 1311.68929551 C650.30392928 1292.77356464 648.27211654 1273.8578382 646.24026906 1254.94211549 C644.36248056 1237.46060591 644.36248056 1237.46060591 643.49496126 1229.38391137 C643.38581071 1228.36771212 643.27666016 1227.35151287 643.16420201 1226.3045197 C642.94563567 1224.26961655 642.72707577 1222.23471271 642.50852241 1220.19980816 C641.9702921 1215.18855066 641.43194215 1210.17730608 640.89333451 1205.16608912 C639.94598635 1196.35099335 638.99934824 1187.53582547 638.05717248 1178.72017515 C637.54158526 1173.89628156 637.02528957 1169.07246401 636.50860596 1164.24868774 C636.35574311 1162.82138874 636.35574311 1162.82138874 636.19979213 1161.36525541 C634.81916834 1148.48690204 633.40672816 1135.6124008 631.96833909 1122.74037462 C631.17039683 1115.59840462 630.38179321 1108.45541004 629.5949586 1101.31220865 C629.0687262 1096.54130586 628.53793882 1091.77103983 627.99315572 1087.00221694 C624.41392007 1055.63254067 622.28528695 1024.21675685 620.40259411 992.70605835 C619.93920121 984.96083355 619.46240659 977.21644409 618.98535304 969.47205071 C617.77760447 949.85976664 616.58815817 930.24638631 615.40132618 910.63282718 C614.7846917 900.44301491 614.16658832 890.25329185 613.54847212 880.06356938 C612.40872681 861.27409226 611.27007514 842.48454903 610.13208771 823.69496536 C609.00835404 805.14079071 607.88410913 786.58664714 606.75920868 768.03254318 C606.68877995 766.8708874 606.61835122 765.70923161 606.54578829 764.51237414 C606.18798889 758.61085138 605.83018061 752.70932915 605.47236893 746.80780713 C602.95018326 705.20819259 600.42910277 663.60851114 597.90869141 622.00878906 C595.46297093 581.64189261 593.0167379 541.27502727 590.56982422 500.90820312 C590.4563181 499.03568353 590.4563181 499.03568353 590.34051893 497.12533525 C589.58047337 484.58681177 588.82041753 472.04828891 588.06035417 459.50976652 C586.51256835 433.97643446 584.96485105 408.44309825 583.41717529 382.90975952 C583.31047913 381.14950321 583.31047913 381.14950321 583.20162749 379.35368617 C578.46660205 301.23586045 573.7331914 223.11793686 569 145 C549.86 144.67 530.72 144.34 511 144 C510.67 152.25 510.34 160.5 510 169 C509.69931212 174.44893278 509.38454589 179.89202432 509.03031254 185.33712482 C508.93642013 186.81459027 508.84278726 188.29207222 508.74938282 189.76956859 C508.49662052 193.7561553 508.24023978 197.74250151 507.98315182 201.72881128 C507.70223579 206.09495313 507.42480702 210.46131696 507.14688534 214.82765025 C506.59708721 223.45669542 506.04407423 232.08553172 505.49000777 240.71430375 C504.82539762 251.06684796 504.16425085 261.41961269 503.50306433 271.77237602 C501.82801614 297.99642526 500.14576979 324.22001155 498.46218839 350.44351414 C498.00476015 357.56846897 497.5474844 364.69343358 497.09022403 371.81839919 C494.24103209 416.21262343 491.38925258 460.60668102 488.53151035 505.00035572 C487.87033142 515.27196304 487.20919487 525.54357309 486.5480957 535.81518555 C486.46597499 537.0910661 486.38385428 538.36694665 486.29924505 539.68149025 C483.64855108 580.8657935 481.0108549 622.05091528 478.38068362 663.2365339 C475.66690065 705.73051814 472.94130021 748.22372793 470.20083627 790.71600026 C469.81112841 796.75863971 469.42154247 802.80128702 469.03202629 808.84393883 C468.91707275 810.62711881 468.91707275 810.62711881 468.79979691 812.44632264 C467.73232151 829.00949538 466.67277648 845.57315842 465.61956183 862.13724384 C453.69948931 1049.59916197 453.69948931 1049.59916197 445.47526397 1122.71020966 C444.10337248 1134.91602096 442.84047809 1147.13137395 441.61180115 1159.35237122 C441.46346776 1160.82666972 441.46346776 1160.82666972 441.31213774 1162.33075204 C440.91130304 1166.31665566 440.51090957 1170.30260311 440.11128884 1174.28862863 C439.11768019 1184.19689831 438.1091671 1194.10363015 437.09843566 1204.01016577 C436.79294662 1207.00448817 436.48769232 1209.99883441 436.18251121 1212.9931882 C435.76902912 1217.05009076 435.35546839 1221.10698529 434.94182849 1225.16387177 C434.29530696 1231.50499902 433.6490772 1237.84615599 433.00288582 1244.18731689 C431.19742218 1261.904031 429.39162626 1279.62071115 427.58444118 1297.33724976 C427.4713395 1298.44603505 427.35823782 1299.55482034 427.24170882 1300.69720519 C427.12844736 1301.80755295 427.0151859 1302.91790071 426.89849228 1304.06189537 C426.66922538 1306.30949269 426.43995908 1308.55709006 426.21069336 1310.8046875 C426.04013246 1312.47676989 426.04013246 1312.47676989 425.86612589 1314.18263173 C423.99646629 1332.51242287 422.12949814 1350.84248715 420.26358139 1369.17265964 C418.32748074 1388.19191721 416.389201 1407.21095166 414.44870335 1426.22976112 C413.36700704 1436.8319634 412.28623948 1447.43425847 411.20791435 1458.0368042 C410.29799905 1466.98338517 409.38610916 1475.92976203 408.47157776 1484.87587237 C408.00611401 1489.4297127 407.54160893 1493.98364555 407.07963943 1498.5378418 C406.65751602 1502.69900541 406.23271608 1506.85988657 405.8057381 1511.02055478 C405.65156309 1512.52761665 405.49838655 1514.03478105 405.34628838 1515.54205394 C405.14015655 1517.58335338 404.93009132 1519.6242545 404.71980953 1521.66513062 C404.60409947 1522.80020742 404.48838941 1523.93528423 404.36917299 1525.10475731 C404 1528 404 1528 403 1532 C311.59 1532 220.18 1532 126 1532 C119.38471013 1452.68556771 119.38471013 1452.68556771 117.37631226 1428.56951904 C117.30785491 1427.74753376 117.23939755 1426.92554848 117.16886574 1426.07865455 C114.23681399 1390.87175562 111.31543415 1355.66397841 108.40161133 1320.45556641 C108.34423831 1319.76232181 108.28686529 1319.06907721 108.22775369 1318.35482519 C106.72558385 1300.20364493 105.22427943 1282.05239311 103.72325657 1263.90111796 C102.81037719 1252.86212575 101.89725991 1241.82315323 100.98401642 1230.78419113 C100.91670048 1229.97049744 100.84938455 1229.15680375 100.78002873 1228.31845268 C100.50552326 1225.00032083 100.23101702 1221.68218905 99.95650967 1218.36405737 C96.31645472 1174.3644924 92.6776321 1130.36482554 89.0390946 1086.36513507 C88.81245417 1083.62444579 88.58581298 1080.88375656 88.35917157 1078.14306736 C86.05570391 1050.28809225 83.75231069 1022.43311099 81.44897461 994.578125 C81.37161995 993.64265027 81.29426528 992.70717554 81.21456654 991.74335309 C80.03226719 977.4454193 78.84998132 963.14748439 77.66770935 948.84954834 C77.58905685 947.8983558 77.51040435 946.94716326 77.42936844 945.96714671 C75.42005221 921.66723429 73.41083947 897.36731332 71.4017479 873.06738232 C69.6005747 851.28222123 67.79934894 829.49706449 65.99804688 807.71191406 C65.91639135 806.72436159 65.83473582 805.73680913 65.75060589 804.71933082 C60.01768838 735.3848553 54.28068726 666.05071824 48.54180993 596.71673578 C47.60486964 585.39712643 46.6679426 574.07751598 45.73103333 562.75790405 C45.64688782 561.74127085 45.56274232 560.72463764 45.47604695 559.67719737 C42.87735174 528.28003405 40.27947861 496.88280279 37.68241882 465.48550415 C37.60076709 464.49837464 37.51911536 463.51124514 37.43498933 462.49420262 C35.72108856 441.77392731 34.00733162 421.0536401 32.29375407 400.33333806 C31.4902468 390.61746638 30.68670622 380.90159746 29.88314819 371.18572998 C29.80402306 370.22901547 29.72489792 369.27230095 29.64337505 368.28659509 C27.09921407 337.52492721 24.55276151 306.76344955 22.00510206 276.00207123 C19.44235395 245.05838198 16.88188606 214.11450496 14.32456178 183.17036696 C13.97084035 178.89027514 13.6170925 174.61018551 13.26332855 170.3300972 C13.15930364 169.07151301 13.15930364 169.07151301 13.05317721 167.78750288 C11.95595386 154.51316789 10.85626456 141.2390384 9.75553801 127.96499349 C8.67156486 114.89237254 7.59021171 101.81953704 6.51161091 88.74647171 C5.87965302 81.08785139 5.24571399 73.42940145 4.60877843 65.77119346 C4.13499127 60.07187034 3.66506037 54.37223431 3.19657674 48.67247303 C3.00843314 46.39059936 2.81908013 44.10882498 2.62832353 41.82716827 C2.36773331 38.70802302 2.11176815 35.58852806 1.85681248 32.46891785 C1.78399876 31.61059954 1.71118505 30.75228123 1.63616486 29.86795328 C0.83326249 19.91538085 0.47580745 9.99195649 0 0 Z " fill="#FFF9FD" transform="translate(912,2439)"/>
<path d="M0 0 C1.69205803 1.26536926 3.40482045 2.49746834 5.12158203 3.72900391 C20.61365965 15.11277212 34.81349133 29.48781524 45.74267578 45.30322266 C46.53923023 46.4089224 47.33611637 47.51438326 48.13330078 48.61962891 C100.15634574 122.20418085 96.16297696 219.88947105 96.00022125 305.87185287 C95.99204733 310.2955589 95.98847888 314.71926289 95.98529053 319.14297485 C95.95810777 352.43004498 95.90117554 385.71672346 94.86767578 418.99072266 C94.82856079 420.25399384 94.7894458 421.51726501 94.74914551 422.81881714 C94.01840574 445.3239874 92.81361752 467.81344624 91.74267578 490.30322266 C43.23267578 490.30322266 -5.27732422 490.30322266 -55.25732422 490.30322266 C-54.59732422 481.06322266 -53.93732422 471.82322266 -53.25732422 462.30322266 C-52.79193977 455.46941938 -52.32754756 448.6359371 -51.87963867 441.80102539 C-51.75583514 439.91845935 -51.63082366 438.03597237 -51.50463867 436.15356445 C-49.93065228 412.67275085 -49.03757839 389.20813673 -48.63232422 365.67822266 C-48.61019867 364.39708588 -48.58807312 363.1159491 -48.5652771 361.79598999 C-47.80973139 315.6211917 -48.82942326 269.41893484 -51.25732422 223.30322266 C-51.30953125 222.307724 -51.36173828 221.31222534 -51.41552734 220.28656006 C-51.73511604 214.27706517 -52.0802194 208.26969869 -52.45611572 202.26345825 C-52.57070471 200.41969492 -52.68139136 198.57568349 -52.78753662 196.73141479 C-54.67533935 164.50424834 -63.53433827 135.94518603 -87.30810547 112.90087891 C-92.30740446 108.49752284 -97.65363189 104.87106564 -103.25732422 101.30322266 C-104.14291016 100.71025391 -105.02849609 100.11728516 -105.94091797 99.50634766 C-122.54566439 88.99884484 -142.25677887 83.57182905 -161.25732422 79.30322266 C-162.09344238 79.11421387 -162.92956055 78.92520508 -163.79101562 78.73046875 C-221.4131622 66.04144622 -284.69191943 65.79470663 -343.25732422 71.30322266 C-343.94046692 71.36638672 -344.62360962 71.42955078 -345.32745361 71.49462891 C-388.90287666 75.55614354 -438.67880837 82.5924372 -472.25732422 113.30322266 C-473.53349609 114.45757813 -473.53349609 114.45757813 -474.83544922 115.63525391 C-501.80881692 141.24340514 -506.89592455 175.59626718 -508.88232422 210.92822266 C-509.00393432 212.94259316 -509.12632843 214.95691649 -509.24951172 216.97119141 C-510.6027491 239.49506719 -511.41512244 261.98446147 -511.42529297 284.54931641 C-511.42933583 286.79976943 -511.4335727 289.05022211 -511.43798828 291.30067444 C-511.4493435 298.44736543 -511.44791896 305.59402555 -511.44482422 312.74072266 C-511.44470463 313.9587558 -511.44458504 315.17678894 -511.44446182 316.43173218 C-511.43999276 352.35589857 -511.25978502 388.21089064 -509.41876221 424.0949707 C-509.2477852 427.49279117 -509.08902494 430.89102967 -508.93261719 434.28955078 C-506.1422988 521.55858226 -506.1422988 521.55858226 -464.25732422 595.30322266 C-463.45294922 596.08052734 -463.45294922 596.08052734 -462.63232422 596.87353516 C-435.80336034 621.8021141 -394.0115388 630.12437916 -359.14404297 635.63916016 C-357.79400803 635.85462078 -356.44398707 636.07016894 -355.09397888 636.28579712 C-341.40515676 638.46447578 -327.69963828 640.5340144 -313.99305248 642.5973711 C-282.26129171 647.37475771 -250.54065113 652.22714191 -218.83053589 657.14605713 C-214.71865564 657.7836518 -210.60629662 658.41799863 -206.49343872 659.04925537 C-175.26299549 663.84573159 -143.91041467 668.69766256 -113.25732422 676.49072266 C-112.54624512 676.66965057 -111.83516602 676.84857849 -111.10253906 677.03292847 C-80.96933493 684.66025206 -50.74868604 694.68621996 -23.25732422 709.30322266 C-22.54366699 709.67672852 -21.83000977 710.05023437 -21.09472656 710.43505859 C-0.34421034 721.33918022 17.71550948 735.25655329 34.74267578 751.30322266 C35.47486328 751.99287109 36.20705078 752.68251953 36.96142578 753.39306641 C73.58712344 788.92871354 88.70583034 838.38390715 97.86767578 887.17822266 C98.09729004 888.37382812 98.3269043 889.56943359 98.56347656 890.80126953 C103.69455871 919.23191374 105.6245358 948.04622506 107.27685547 976.84570312 C107.53392755 981.28060587 107.80433735 985.714698 108.07275391 990.14892578 C108.61801083 999.20085364 109.13300318 1008.25425548 109.6317215 1017.30885696 C109.73002979 1019.07591528 109.8319994 1020.84276907 109.93450928 1022.60958862 C111.09219074 1042.71451405 110.98692329 1062.85932096 110.99267578 1082.99072266 C110.99355949 1084.41027126 110.99355949 1084.41027126 110.99446106 1085.85849762 C111.00893619 1118.91019843 110.17826765 1151.76903127 107.97698975 1184.75634766 C107.73427652 1188.43036465 107.50219851 1192.10493512 107.27246094 1195.77978516 C102.87212929 1265.80588371 95.72380428 1344.36613116 46.74267578 1399.30322266 C45.98083984 1400.16173828 45.21900391 1401.02025391 44.43408203 1401.90478516 C42.91848309 1403.5967354 41.39531295 1405.28194157 39.86376953 1406.95947266 C37.92436075 1409.10246578 36.04938279 1411.28666904 34.18017578 1413.49072266 C30.66512268 1417.49995555 26.85133296 1420.91309058 22.74267578 1424.30322266 C22.24300293 1424.72587402 21.74333008 1425.14852539 21.22851562 1425.58398438 C-45.92314563 1482.27711479 -144.97421871 1496.87304437 -230.20623922 1496.73913074 C-233.35281281 1496.73595527 -236.49934479 1496.74222144 -239.64591229 1496.74816948 C-247.10528809 1496.76204279 -254.56454902 1496.76080347 -262.02392578 1496.74926758 C-268.74506289 1496.73909944 -275.4659092 1496.74613817 -282.18701172 1496.76977539 C-354.7092722 1497.01873334 -354.7092722 1497.01873334 -389.25732422 1492.30322266 C-390.08853979 1492.19161615 -390.91975536 1492.08000965 -391.77615929 1491.96502113 C-459.59340363 1482.84920808 -532.62200464 1466.23382345 -583.70654297 1417.67822266 C-586.21300288 1415.28273352 -586.21300288 1415.28273352 -588.89013672 1413.20947266 C-592.49757812 1410.30447034 -595.27641488 1406.83140832 -598.25732422 1403.30322266 C-599.37107422 1402.03865234 -599.37107422 1402.03865234 -600.50732422 1400.74853516 C-643.12852265 1351.43362287 -655.50978963 1286.27082014 -659.19856262 1223.12120056 C-659.32183863 1221.01886918 -659.44780136 1218.91671251 -659.57434082 1216.8145752 C-664.64682077 1132.22195322 -662.61896465 1048.44403922 -658.15966797 963.89697266 C-658.12113897 963.1644717 -658.08260998 962.43197075 -658.04291344 961.6772728 C-657.78995428 956.88540689 -657.52714329 952.09416693 -657.25732422 947.30322266 C-657.21765156 946.58643341 -657.1779789 945.86964417 -657.13710403 945.13113403 C-657.01618635 942.96756703 -656.8904746 940.80432816 -656.76342773 938.64111328 C-656.69035904 937.37545532 -656.61729034 936.10979736 -656.54200745 934.80578613 C-656.28306777 931.61995507 -655.78279876 928.45606991 -655.25732422 925.30322266 C-607.07732422 925.30322266 -558.89732422 925.30322266 -509.25732422 925.30322266 C-510.57732422 948.07322266 -511.89732422 970.84322266 -513.25732422 994.30322266 C-514.08376114 1014.02585971 -514.08376114 1014.02585971 -514.41845703 1033.7421875 C-514.42334546 1034.86700625 -514.42823389 1035.99182501 -514.43327045 1037.15072918 C-514.4473511 1040.77187765 -514.45441433 1044.39298999 -514.46044922 1048.01416016 C-514.46738591 1050.61803706 -514.47438101 1053.22191381 -514.48143005 1055.82579041 C-514.49978305 1063.40240454 -514.50515197 1070.97900373 -514.50676298 1078.55563784 C-514.50732617 1080.68562 -514.50839265 1082.81560143 -514.50955582 1084.94558334 C-514.52971215 1127.04638158 -514.1941646 1169.05054866 -511.4630127 1211.07855225 C-511.25839257 1214.28647361 -511.06914962 1217.49493023 -510.88525391 1220.70410156 C-510.55558981 1226.44724782 -510.19581754 1232.18794112 -509.81982422 1237.92822266 C-509.77046722 1238.72289948 -509.72111023 1239.51757629 -509.67025757 1240.33633423 C-507.73338809 1270.52415695 -497.91051944 1300.08289637 -475.47998047 1321.35400391 C-428.61794882 1362.450935 -357.19705684 1367.44486578 -297.46044922 1367.47119141 C-295.69333878 1367.47442166 -293.92622859 1367.4777869 -292.15911865 1367.48127747 C-288.47488793 1367.48721463 -284.79068047 1367.48912323 -281.10644531 1367.48852539 C-277.39513228 1367.48844454 -273.68394375 1367.49533054 -269.97265625 1367.5090332 C-242.68747029 1367.6081387 -215.59514538 1367.17885286 -188.50732422 1363.49072266 C-187.22768799 1363.31895508 -185.94805176 1363.1471875 -184.62963867 1362.97021484 C-150.54456371 1358.23670589 -114.47451008 1350.69375754 -87.25732422 1328.30322266 C-86.73879883 1327.87960449 -86.22027344 1327.45598633 -85.68603516 1327.01953125 C-69.78359752 1313.79733561 -59.16192972 1297.44994122 -52.44482422 1277.99072266 C-52.16670898 1277.19851318 -51.88859375 1276.40630371 -51.60205078 1275.59008789 C-46.34490377 1259.44245027 -45.5695063 1242.43840733 -44.63232422 1225.61572266 C-44.5107611 1223.57986547 -44.38836774 1221.54405769 -44.26513672 1219.50830078 C-43.0307878 1198.80634017 -42.16193876 1178.09892133 -41.69482422 1157.36572266 C-41.67397766 1156.45180756 -41.6531311 1155.53789246 -41.63165283 1154.59628296 C-41.31401198 1140.49465255 -41.05938954 1126.40847064 -41.25732422 1112.30322266 C-41.27539661 1110.84033211 -41.29346257 1109.37744147 -41.31152344 1107.91455078 C-41.65032053 1081.97166921 -42.54326896 1056.05259429 -43.59786606 1030.13056564 C-43.69316295 1027.78166981 -43.78720214 1025.43272639 -43.88101196 1023.08377075 C-44.93881481 984.7377765 -44.93881481 984.7377765 -49.50732422 946.74072266 C-49.72348389 945.50588135 -49.93964355 944.27104004 -50.16235352 942.9987793 C-52.13161832 932.19204377 -54.73269747 921.70566766 -58.25732422 911.30322266 C-58.6960083 910.00747314 -58.6960083 910.00747314 -59.14355469 908.68554688 C-71.1607969 873.93160606 -89.52617462 847.41776414 -122.94873047 830.75244141 C-151.21408512 817.32146205 -182.3088303 811.51563575 -212.96955872 806.55204773 C-240.89911197 802.02161554 -268.7111124 796.80676019 -296.53788823 791.69076598 C-301.5982059 790.76061437 -306.65895461 789.83283761 -311.7199707 788.90649414 C-338.73438558 783.96167608 -365.74892049 779.01476816 -392.72928429 773.88680458 C-394.65930573 773.52019416 -396.58956225 773.15481835 -398.5200901 772.79088402 C-426.59315342 767.49092342 -454.17329758 760.42023462 -481.25732422 751.30322266 C-482.93930908 750.73764648 -482.93930908 750.73764648 -484.65527344 750.16064453 C-532.05243969 733.97123534 -577.01228826 708.11275425 -607.25732422 667.30322266 C-608.02947266 666.26423828 -608.80162109 665.22525391 -609.59716797 664.15478516 C-620.24516671 649.2962421 -627.98705408 633.43073909 -634.25732422 616.30322266 C-634.65081055 615.25424805 -634.65081055 615.25424805 -635.05224609 614.18408203 C-648.88265815 577.00362364 -654.53989387 536.60001942 -658.25732422 497.30322266 C-658.3652832 496.16401367 -658.47324219 495.02480469 -658.58447266 493.85107422 C-659.34879715 485.34571242 -659.83469781 476.83103107 -660.25732422 468.30322266 C-660.30115234 467.44684204 -660.34498047 466.59046143 -660.39013672 465.70812988 C-663.75480261 399.49839799 -663.00812455 333.07368594 -660.5027914 266.84602642 C-660.30008026 261.48239892 -660.10682766 256.11847474 -659.91650391 250.75439453 C-659.59603591 241.74636595 -659.2569497 232.73912541 -658.90997696 223.73208237 C-658.82184798 221.41884305 -658.73651018 219.10551691 -658.65194702 216.79214478 C-655.93372949 143.05847835 -642.33612696 68.41392426 -586.47802734 15.62158203 C-578.5961196 8.41899894 -570.22486109 2.10074056 -561.25732422 -3.69677734 C-560.20158203 -4.38900391 -559.14583984 -5.08123047 -558.05810547 -5.79443359 C-486.95580631 -51.10919335 -392.94239849 -59.12563392 -310.63232422 -61.25927734 C-309.84151459 -61.2801239 -309.05070496 -61.30097046 -308.2359314 -61.32244873 C-220.79140717 -63.58280822 -127.57890748 -60.40703498 0 0 Z " fill="#FFFAFE" transform="translate(670.25732421875,2486.69677734375)"/>
<path d="M0 0 C1.3855561 -0.0029767 2.77110988 -0.00726817 4.15665833 -0.01274834 C7.97302118 -0.02402203 11.78915476 -0.01659747 15.6055116 -0.00617849 C19.76948365 0.00186966 23.93342263 -0.00752674 28.09739125 -0.01468903 C35.42635518 -0.02487896 42.75525225 -0.02386729 50.08421767 -0.0156384 C61.05595331 -0.00337497 72.02763457 -0.00838046 82.99937142 -0.01678632 C101.69683905 -0.03060115 120.39428221 -0.0301291 139.09175205 -0.02194369 C158.04562724 -0.0136965 176.99948632 -0.0119436 195.95336246 -0.01815569 C197.14949209 -0.01854321 198.34562171 -0.01893073 199.57799768 -0.01932999 C204.44946348 -0.02092976 209.32092925 -0.02257588 214.19239501 -0.02428082 C259.59191081 -0.04015882 304.99141806 -0.04123146 350.39093494 -0.03283846 C351.75049318 -0.03258755 353.11005142 -0.03233666 354.46960965 -0.03208578 C355.48030979 -0.03189923 355.48030979 -0.03189923 356.51142811 -0.03170891 C365.39688347 -0.03006939 374.28233884 -0.02845956 383.16779423 -0.02692902 C383.84697175 -0.02681154 384.52614928 -0.02669405 385.22590794 -0.02657301 C416.68649402 -0.02117151 448.14707866 -0.02245396 479.60766495 -0.02522039 C483.03881006 -0.02551978 486.46995518 -0.02580628 489.9011003 -0.02609421 C500.24275138 -0.02696597 510.58440245 -0.02785679 520.92605352 -0.02878701 C552.46291601 -0.03162073 583.99977852 -0.03342136 615.53664112 -0.03433192 C616.23886153 -0.03435252 616.94108193 -0.03437313 617.66458175 -0.03439436 C663.14867914 -0.03571077 708.63277493 -0.0324073 754.11687183 -0.02578318 C755.20620431 -0.02562515 755.20620431 -0.02562515 756.31754349 -0.02546392 C780.64310295 -0.02193478 804.96866238 -0.01816662 829.29422179 -0.01437403 C902.8577362 -0.00291255 976.42124486 0.00336822 1107.79540642 -0.01472003 C1132.11479095 -0.0185096 1156.43417549 -0.02225511 1180.75356007 -0.02578318 C1181.47957662 -0.02588892 1182.20559318 -0.02599465 1182.95361023 -0.02610359 C1228.41367063 -0.03271856 1273.87372991 -0.03566586 1319.33379078 -0.03433192 C1320.03577934 -0.03431165 1320.73776789 -0.03429138 1321.46102883 -0.0342705 C1352.98032114 -0.03335037 1384.49961334 -0.03143554 1416.01890553 -0.02860041 C1426.35602295 -0.02767174 1436.69314037 -0.02678874 1447.03025779 -0.02592126 C1450.45942475 -0.02563329 1453.88859171 -0.02534122 1457.31775866 -0.02503969 C1488.77938572 -0.02228162 1520.24101085 -0.02148684 1551.70263767 -0.02692902 C1552.38138543 -0.02704594 1553.06013319 -0.02716285 1553.75944906 -0.02728331 C1562.6399068 -0.02881874 1571.52036453 -0.03044666 1580.40082225 -0.03208578 C1581.07409209 -0.03221002 1581.74736194 -0.03233426 1582.4410339 -0.03246226 C1583.79936029 -0.03271294 1585.15768668 -0.03296384 1586.51601307 -0.03321495 C1632.46015968 -0.04168649 1678.40429563 -0.03907598 1724.34844089 -0.02299623 C1729.20465039 -0.0213391 1734.0608599 -0.01972899 1738.91706944 -0.01815569 C1740.10890201 -0.01776507 1741.30073458 -0.01737445 1742.52868329 -0.016972 C1761.43529411 -0.01104427 1780.34188887 -0.01518574 1799.24849825 -0.02346271 C1817.81871329 -0.03137951 1836.3889011 -0.02864779 1854.95911268 -0.01442045 C1865.85948893 -0.00638876 1876.75979068 -0.0066264 1887.66016344 -0.01886524 C1894.88854468 -0.02616695 1902.11686761 -0.02269794 1909.34524175 -0.01026468 C1913.44984287 -0.00351097 1917.55429505 -0.00150833 1921.65888979 -0.01271423 C1925.38168564 -0.02279052 1929.10420288 -0.01911456 1932.82698095 -0.00439011 C1934.79342698 -0.00016544 1936.75988783 -0.0106501 1938.72630716 -0.02173402 C1946.21433826 0.02535689 1952.57269971 0.3412133 1958.67740345 5.13776624 C1959.21623158 5.77327405 1959.7550597 6.40878187 1960.31021595 7.06354749 C1960.86451283 7.68616468 1961.4188097 8.30878187 1961.98990345 8.95026624 C1965.79389831 15.33480896 1965.72908819 22.47882296 1965.70987415 29.68830335 C1965.71498508 30.68938627 1965.72009602 31.69046918 1965.72536182 32.72188795 C1965.73919468 36.01161753 1965.73830591 39.30113614 1965.7359972 42.59089124 C1965.73988733 44.88960317 1965.74422265 47.18831438 1965.74898243 49.48702466 C1965.75643089 54.29763088 1965.75616311 59.10816369 1965.75088978 63.9187721 C1965.74509427 70.06983628 1965.76203506 76.22059943 1965.78523445 82.37161386 C1965.79999662 87.1166709 1965.80084014 91.86165583 1965.79772472 96.60673177 C1965.79823659 98.87403495 1965.80344898 101.14134231 1965.81353664 103.4086231 C1965.82593295 106.58407782 1965.81909012 109.75895104 1965.8075304 112.9343971 C1965.81899601 114.32572355 1965.81899601 114.32572355 1965.83069324 115.7451576 C1965.77264324 122.99390653 1964.6259964 129.86673477 1960.12271595 135.75104749 C1954.69412383 141.05339328 1949.14793208 142.50058026 1941.78417827 142.50213666 C1940.62197176 142.50480637 1939.45976526 142.50747608 1938.26234037 142.51022669 C1936.98118453 142.50807222 1935.70002869 142.50591775 1934.38004994 142.50369799 C1933.00106359 142.50494039 1931.62207757 142.50662088 1930.24309222 142.50870035 C1926.42638976 142.51316983 1922.60971143 142.51136466 1918.79300829 142.50859857 C1914.63556525 142.50668277 1910.47812701 142.51055396 1906.32068527 142.51369536 C1898.99700722 142.51841953 1891.67333593 142.51939085 1884.34965661 142.51796702 C1873.38575712 142.51585112 1862.42186466 142.51945179 1851.45796625 142.52418179 C1832.7753949 142.53206695 1814.09282546 142.53514443 1795.41025257 142.53562772 C1776.46760178 142.53612956 1757.52495313 142.53877083 1738.58230305 142.54403532 C1736.79011059 142.54453052 1736.79011059 142.54453052 1734.96171222 142.54503572 C1730.09578689 142.54638567 1725.22986157 142.54774833 1720.36393624 142.54912783 C1666.81895103 142.56428099 1613.27396612 142.57107145 1559.72897922 142.57554979 C1559.05157717 142.57560648 1558.37417511 142.57566317 1557.67624571 142.57572158 C1554.24984023 142.5760081 1550.82343475 142.57629313 1547.39702927 142.5765757 C1518.69841557 142.57895015 1489.99980209 142.58265968 1461.30118857 142.58661279 C1447.56066989 142.58850534 1433.82015121 142.59033384 1420.07963252 142.59214699 C1419.39627246 142.59223718 1418.7129124 142.59232737 1418.00884446 142.59242029 C1385.11898465 142.59675662 1352.22912479 142.60068493 1319.33926487 142.60414732 C1318.63765424 142.60422119 1317.93604361 142.60429506 1317.21317206 142.60437117 C1272.49644707 142.60906651 1227.77972217 142.61188931 1183.06299698 142.61353409 C1179.39645041 142.61366967 1175.72990383 142.6138087 1172.06335726 142.61394764 C1166.18493103 142.61417011 1160.3065048 142.61439148 1154.42807857 142.61461151 C1153.33541532 142.61465242 1153.33541532 142.61465242 1152.22067807 142.61469415 C1150.7484345 142.61474927 1149.27619094 142.61480438 1147.80394738 142.61485948 C1137.47646162 142.6152461 1127.14897585 142.61563405 1116.82149009 142.61602862 C1113.12608489 142.61616972 1109.43067968 142.6163098 1105.73527448 142.61644751 C1035.93448871 142.61905199 966.13370517 142.62438392 896.33292103 142.64032972 C895.59802466 142.64049751 894.8631283 142.64066531 894.10596235 142.64083818 C871.14442443 142.64608892 848.18288659 142.65166326 825.22134876 142.65729749 C801.66150509 142.66307837 778.10166141 142.66880886 754.54181767 142.67425382 C753.81641783 142.67442163 753.091018 142.67458944 752.34363636 142.67476233 C706.92187093 142.6852534 661.50010612 142.69211652 616.07833958 142.69512022 C615.37693294 142.69516703 614.6755263 142.69521384 613.95286491 142.69526207 C583.15044008 142.69731261 552.34801528 142.69855679 521.54559039 142.69890813 C509.15411969 142.69905139 496.76264899 142.69929006 484.37117829 142.69957218 C482.31657599 142.69961771 480.26197369 142.69965937 478.20737138 142.69970029 C446.77013371 142.7003466 415.33289858 142.70330851 383.89566231 142.71316087 C382.87829379 142.71347943 382.87829379 142.71347943 381.84037237 142.71380442 C370.92950309 142.71723333 360.01863387 142.72084626 349.10776465 142.72448083 C304.41859696 142.73936016 259.72943695 142.74495091 215.04026674 142.73673824 C208.96475554 142.73562279 202.88924433 142.73461215 196.8137331 142.73366392 C195.62271471 142.73347395 194.43169633 142.73328398 193.20458648 142.73308826 C174.3108403 142.73034969 155.41711196 142.7377123 136.52336966 142.74923728 C117.96565645 142.76034872 99.40796858 142.76083888 80.85025499 142.7498671 C69.95713678 142.74374942 59.06409481 142.74592161 48.17098371 142.76011907 C40.94737422 142.76872107 33.72382115 142.7665523 26.50021521 142.75542036 C22.39831476 142.74940656 18.29656438 142.74814758 14.19467358 142.76010522 C10.4743184 142.77086393 6.75423974 142.76786448 3.03389785 142.75381255 C1.0687484 142.74994513 -0.89641321 142.76079455 -2.86153312 142.77224364 C-12.47448228 142.71348287 -19.59170353 141.34912801 -26.56478405 134.37604749 C-30.69388808 127.54166841 -30.71669757 121.15978841 -30.72591686 113.4043678 C-30.73088177 112.40372297 -30.73584667 111.40307813 -30.74096203 110.37211072 C-30.75555066 107.06612428 -30.76238034 103.76018582 -30.76790905 100.45417249 C-30.77366341 98.15117362 -30.77942111 95.84817476 -30.785182 93.54517591 C-30.79568274 88.71666209 -30.80153141 83.88816487 -30.80501842 79.05964124 C-30.8104998 72.88497001 -30.83452436 66.71051966 -30.86299038 60.53591764 C-30.88165217 55.77799825 -30.88682426 51.02013167 -30.8883543 46.26217878 C-30.89137357 43.98649613 -30.89937747 41.71081426 -30.91253948 39.43516767 C-30.92967302 36.24504461 -30.92770168 33.05545623 -30.92122936 29.8653053 C-30.93044415 28.93304121 -30.93965893 28.00077711 -30.94915295 27.04026258 C-30.89484577 18.45688046 -29.03484723 11.57842553 -23.5530653 4.88385999 C-16.47101061 -0.4868141 -8.48077362 -0.04780271 0 0 Z " fill="#FFFAFE" transform="translate(32.56478404998779,1591.6239525079727)"/>
<path d="M0 0 C1.38836443 -0.00396892 2.77672476 -0.00969088 4.16507563 -0.01699778 C7.98930284 -0.0320299 11.81312331 -0.02213 15.63733987 -0.00823798 C19.80980741 0.00249275 23.98221629 -0.01003558 28.15467775 -0.01958537 C35.49862012 -0.03317208 42.84244385 -0.03182301 50.18638885 -0.02085119 C61.18053628 -0.00450004 72.17458721 -0.01117389 83.1687368 -0.02238176 C101.90437288 -0.04080161 120.63996557 -0.04017211 139.37560558 -0.02925825 C158.36818605 -0.01826203 177.36073794 -0.01592479 196.35332012 -0.02420759 C197.55188951 -0.02472428 198.75045889 -0.02524097 199.98534856 -0.02577332 C204.86675031 -0.02790635 209.74815202 -0.03010117 214.6295537 -0.03237442 C260.12173048 -0.05354512 305.61389196 -0.05497527 351.10607052 -0.04378462 C352.46840517 -0.04345007 353.83073982 -0.04311555 355.19307448 -0.04278104 C355.86825056 -0.04261521 356.54342664 -0.04244939 357.23906261 -0.04227854 C366.14266255 -0.04009251 375.0462625 -0.03794608 383.94986248 -0.03590536 C384.63042686 -0.03574872 385.31099124 -0.03559207 386.01217878 -0.03543068 C417.53697 -0.02822869 449.06175868 -0.02993861 480.58655026 -0.03362719 C484.02469498 -0.03402638 487.4628397 -0.03440837 490.90098441 -0.03479229 C501.263732 -0.03595463 511.62647958 -0.03714238 521.98922716 -0.03838268 C553.59042564 -0.04216098 585.19162415 -0.04456182 616.79282284 -0.04577589 C617.84830238 -0.0458171 617.84830238 -0.0458171 618.92510474 -0.04585914 C664.50201421 -0.04761436 710.07892083 -0.04320973 755.65582943 -0.03437757 C756.38353324 -0.0342371 757.11123705 -0.03409663 757.8609925 -0.0339519 C782.23620051 -0.02924637 806.61140846 -0.02422216 830.9866164 -0.01916538 C904.70028193 -0.0038834 978.41393727 0.00449096 1110.05624504 -0.0196267 C1134.42526541 -0.02467947 1158.79428579 -0.02967348 1183.16330624 -0.03437757 C1184.25455368 -0.03458904 1184.25455368 -0.03458904 1185.36784653 -0.03480478 C1230.92066901 -0.04362474 1276.47348951 -0.04755448 1322.02631283 -0.04577589 C1322.72973354 -0.04574887 1323.43315425 -0.04572184 1324.15789074 -0.045694 C1355.74148313 -0.04446716 1387.32507531 -0.04191406 1418.90866749 -0.03813388 C1429.26687224 -0.03689566 1439.625077 -0.03571832 1449.98328176 -0.03456168 C1453.41944428 -0.03417771 1456.85560681 -0.0337883 1460.29176933 -0.03338625 C1491.81760523 -0.02970883 1523.34343771 -0.02864913 1554.86927319 -0.03590536 C1555.54940693 -0.03606125 1556.22954066 -0.03621714 1556.93028452 -0.03637775 C1565.82887676 -0.03842498 1574.72746898 -0.04059554 1583.62606119 -0.04278104 C1584.30070595 -0.04294669 1584.97535071 -0.04311234 1585.67043925 -0.04328302 C1587.03153955 -0.04361726 1588.39263984 -0.04395179 1589.75374014 -0.04428661 C1635.79165773 -0.05558197 1681.82955659 -0.05210134 1727.86747193 -0.03066164 C1732.73358645 -0.02845213 1737.59970098 -0.02630532 1742.46581554 -0.02420759 C1743.6600791 -0.02368676 1744.85434265 -0.02316594 1746.08479601 -0.02262933 C1765.0300212 -0.01472568 1783.97521788 -0.02024768 1802.9204405 -0.03128362 C1821.52855942 -0.04183932 1840.13663001 -0.03819712 1858.74474276 -0.01922726 C1869.6674017 -0.00851827 1880.58992846 -0.00883527 1891.51258121 -0.02515365 C1898.75572168 -0.03488922 1905.99875868 -0.03026407 1913.24188656 -0.01368624 C1917.35491243 -0.00468111 1921.46767408 -0.00201118 1925.58068864 -0.01695231 C1929.31114653 -0.03038738 1933.04111014 -0.02548676 1936.77153648 -0.00585348 C1938.74203197 -0.00022042 1940.71255375 -0.01420049 1942.68300188 -0.02897869 C1949.73310758 0.03001871 1954.43192249 0.66401752 1960.40956783 4.50139666 C1962.46816158 6.68499041 1962.46816158 6.68499041 1963.84706783 8.93889666 C1964.55669674 10.05071306 1964.55669674 10.05071306 1965.28066158 11.18499041 C1967.96724051 16.69759007 1967.56364197 22.56795195 1967.57070065 28.56487322 C1967.57566555 29.57527163 1967.58063046 30.58567003 1967.58574581 31.62668657 C1967.60033533 34.96513857 1967.60716426 38.30354304 1967.61269283 41.64202166 C1967.61844711 43.96744077 1967.62420481 46.29285988 1967.62996578 48.61827898 C1967.64046676 53.49387123 1967.64631528 58.36944704 1967.64980221 63.245049 C1967.65528371 69.48025344 1967.67930843 75.71523917 1967.70777416 81.95037508 C1967.72643492 86.75461755 1967.73160799 91.55880771 1967.73313808 96.36308336 C1967.73615757 98.66109458 1967.74416222 100.95910504 1967.75732327 103.25708055 C1967.77445467 106.47833504 1967.77248597 109.69905991 1967.76601315 112.92034197 C1967.77522793 113.86195681 1967.78444271 114.80357164 1967.79393673 115.77372026 C1967.74888828 122.96179961 1966.44556525 129.10806763 1962.72206783 135.31389666 C1955.5239825 142.1228963 1948.2558559 142.07356797 1938.81913567 142.00279331 C1937.43077123 142.00676223 1936.04241091 142.01248419 1934.65406003 142.01979109 C1930.82983283 142.03482321 1927.00601236 142.02492331 1923.1817958 142.01103129 C1919.00932826 142.00030056 1914.83691937 142.01282889 1910.66445792 142.02237868 C1903.32051555 142.03596539 1895.97669181 142.03461632 1888.63274682 142.02364451 C1877.63859939 142.00729335 1866.64454845 142.0139672 1855.65039887 142.02517507 C1836.91476279 142.04359492 1818.17917009 142.04296542 1799.44353008 142.03205156 C1780.45094962 142.02105534 1761.45839772 142.0187181 1742.46581554 142.0270009 C1741.26724616 142.02751759 1740.06867677 142.02803429 1738.8337871 142.02856663 C1733.95238536 142.03069966 1729.07098365 142.03289448 1724.18958197 142.03516774 C1678.69740519 142.05633843 1633.2052437 142.05776858 1587.71306515 142.04657793 C1586.35073049 142.04624338 1584.98839584 142.04590886 1583.62606119 142.04557435 C1582.95088511 142.04540853 1582.27570902 142.0452427 1581.58007306 142.04507185 C1572.67647312 142.04288583 1563.77287316 142.0407394 1554.86927319 142.03869867 C1554.18870881 142.03854203 1553.50814443 142.03838539 1552.80695688 142.03822399 C1521.28216567 142.031022 1489.75737699 142.03273192 1458.2325854 142.0364205 C1454.79444069 142.03681969 1451.35629597 142.03720168 1447.91815125 142.0375856 C1437.55540367 142.03874794 1427.19265608 142.0399357 1416.82990851 142.04117599 C1385.22871002 142.04495429 1353.62751152 142.04735513 1322.02631283 142.0485692 C1320.97083328 142.04861041 1320.97083328 142.04861041 1319.89403092 142.04865246 C1274.31712145 142.05040768 1228.74021483 142.04600305 1183.16330624 142.03717089 C1182.07175052 142.03696018 1182.07175052 142.03696018 1180.95814317 142.03674521 C1156.58293516 142.03203968 1132.20772721 142.02701547 1107.83251926 142.02195869 C1034.11885374 142.00667671 960.4051984 141.99830236 828.76289063 142.02242001 C804.39387026 142.02747278 780.02484987 142.03246679 755.65582943 142.03717089 C754.56458198 142.03738236 754.56458198 142.03738236 753.45128913 142.0375981 C707.89846665 142.04641805 662.34564616 142.05034779 616.79282284 142.0485692 C616.08940213 142.04854218 615.38598142 142.04851515 614.66124493 142.04848731 C583.07765254 142.04726047 551.49406035 142.04470737 519.91046817 142.04092719 C509.55226342 142.03968897 499.19405867 142.03851164 488.83585391 142.037355 C485.39969138 142.03697103 481.96352886 142.03658161 478.52736634 142.03617956 C447.00153043 142.03250214 415.47569795 142.03144244 383.94986248 142.03869867 C383.26972874 142.03885456 382.589595 142.03901045 381.88885115 142.03917106 C372.9902589 142.04121829 364.09166669 142.04338885 355.19307448 142.04557435 C354.51842972 142.04574 353.84378496 142.04590565 353.14869642 142.04607633 C351.78759612 142.04641057 350.42649582 142.0467451 349.06539553 142.04707992 C303.02747794 142.05837528 256.98957908 142.05489465 210.95166373 142.03345495 C206.08554922 142.03124544 201.21943468 142.02909863 196.35332012 142.0270009 C195.15905657 142.02648008 193.96479302 142.02595925 192.73433966 142.02542264 C173.78911447 142.01751899 154.84391779 142.02304099 135.89869516 142.03407693 C117.29057625 142.04463263 98.68250566 142.04099043 80.0743929 142.02202058 C69.15173397 142.01131158 58.2292072 142.01162858 47.30655445 142.02794696 C40.06341399 142.03768253 32.82037698 142.03305738 25.57724911 142.01647955 C21.46422323 142.00747443 17.35146159 142.0048045 13.23844703 142.01974562 C9.50798913 142.0331807 5.77802552 142.02828007 2.04759919 142.00864679 C0.0771037 142.00301373 -1.89341809 142.0169938 -3.86386621 142.031772 C-10.91397192 141.9727746 -15.61278682 141.3387758 -21.59043217 137.50139666 C-23.64902592 135.31780291 -23.64902592 135.31780291 -25.02793217 133.06389666 C-25.5010181 132.32268572 -25.97410404 131.58147478 -26.46152592 130.81780291 C-29.14810484 125.30520324 -28.7445063 119.43484136 -28.75156498 113.43792009 C-28.75652988 112.42752169 -28.76149479 111.41712328 -28.76661015 110.37610674 C-28.78119966 107.03765475 -28.7880286 103.69925028 -28.79355717 100.36077166 C-28.79931144 98.03535254 -28.80506914 95.70993343 -28.81083012 93.38451433 C-28.8213311 88.50892208 -28.82717962 83.63334628 -28.83066654 78.75774431 C-28.83614804 72.52253987 -28.86017276 66.28755414 -28.8886385 60.05241823 C-28.90729926 55.24817576 -28.91247232 50.4439856 -28.91400242 45.63970995 C-28.9170219 43.34169873 -28.92502656 41.04368827 -28.9381876 38.74571276 C-28.955319 35.52445828 -28.9533503 32.3037334 -28.94687748 29.08245134 C-28.95609226 28.14083651 -28.96530704 27.19922167 -28.97480106 26.22907305 C-28.92975261 19.04099371 -27.62642959 12.89472569 -23.90293217 6.68889666 C-16.70484683 -0.12010298 -9.43672023 -0.07077466 0 0 Z " fill="#FFFAFD" transform="translate(30.590432167053223,1916.4986033439636)"/>
</svg>
